General
Complete name                    : Girl in the Park.avi
Format                           : AVI
File size                        : 700 MiB
Duration                         : 1h 45mn
Overall bit rate                 : 926 Kbps
Writing application              : VirtualDubMod 1.5.4.1 (build 2178/release)
Writing library                  : VirtualDubMod build 2178/release

Video
ID                               : 0
Format                           : MPEG-4 Visual
Codec ID/Hint                    : XviD
Duration                         : 1h 45mn
Bit rate                         : 803 Kbps
Width                            : 704 pixels
Height                           : 304 pixels
Display aspect ratio             : 2.35:1
Resolution                       : 8 bits
Colorimetry                      : 4:2:0
Stream size                      : 607 MiB (87%)
Writing library                  : XviD 1.3.0.dev55

Audio
ID                               : 1
Format                           : MPEG Audio
Mode                             : Joint stereo
Codec ID/Hint                    : MP3
Duration                         : 1h 45mn
Bit rate                         : 110 Kbps
Nominal bit rate                 : 128 Kbps
Channel(s)                       : 2 channels
Sampling rate                    : 48.0 KHz
Stream size                      : 83.0 MiB (12%)
Writing library                  : LAME3.98r
Language                         : English

